<mxfile host="65bd71144e" pages="2">
    <diagram name="ERD" id="lmJtNa6nzrPXNYKdCOxV">
        <mxGraphModel dx="1053" dy="622" grid="1" gridSize="10" guides="1" tooltips="1" connect="1" arrows="1" fold="1" page="1" pageScale="1" pageWidth="850" pageHeight="1100" math="0" shadow="0">
            <root>
                <mxCell id="0"/>
                <mxCell id="1" parent="0"/>
                <mxCell id="TUrB2lb7UfNqhxQf74Fi-1" value="books" style="shape=table;startSize=30;container=1;collapsible=1;childLayout=tableLayout;fixedRows=1;rowLines=0;fontStyle=1;align=center;resizeLast=1;html=1;" parent="1" vertex="1">
                    <mxGeometry x="100" y="60" width="180" height="330" as="geometry"/>
                </mxCell>
                <mxCell id="TUrB2lb7UfNqhxQf74Fi-2" value="" style="shape=tableRow;horizontal=0;startSize=0;swimlaneHead=0;swimlaneBody=0;fillColor=none;collapsible=0;dropTarget=0;points=[[0,0.5],[1,0.5]];portConstraint=eastwest;top=0;left=0;right=0;bottom=1;" parent="TUrB2lb7UfNqhxQf74Fi-1" vertex="1">
                    <mxGeometry y="30" width="180" height="30" as="geometry"/>
                </mxCell>
                <mxCell id="TUrB2lb7UfNqhxQf74Fi-3" value="PK" style="shape=partialRectangle;connectable=0;fillColor=none;top=0;left=0;bottom=0;right=0;fontStyle=1;overflow=hidden;whiteSpace=wrap;html=1;" parent="TUrB2lb7UfNqhxQf74Fi-2" vertex="1">
                    <mxGeometry width="30" height="30" as="geometry">
                        <mxRectangle width="30" height="30" as="alternateBounds"/>
                    </mxGeometry>
                </mxCell>
                <mxCell id="TUrB2lb7UfNqhxQf74Fi-4" value="id" style="shape=partialRectangle;connectable=0;fillColor=none;top=0;left=0;bottom=0;right=0;align=left;spacingLeft=6;fontStyle=5;overflow=hidden;whiteSpace=wrap;html=1;" parent="TUrB2lb7UfNqhxQf74Fi-2" vertex="1">
                    <mxGeometry x="30" width="150" height="30" as="geometry">
                        <mxRectangle width="150" height="30" as="alternateBounds"/>
                    </mxGeometry>
                </mxCell>
                <mxCell id="TUrB2lb7UfNqhxQf74Fi-5" value="" style="shape=tableRow;horizontal=0;startSize=0;swimlaneHead=0;swimlaneBody=0;fillColor=none;collapsible=0;dropTarget=0;points=[[0,0.5],[1,0.5]];portConstraint=eastwest;top=0;left=0;right=0;bottom=0;" parent="TUrB2lb7UfNqhxQf74Fi-1" vertex="1">
                    <mxGeometry y="60" width="180" height="30" as="geometry"/>
                </mxCell>
                <mxCell id="TUrB2lb7UfNqhxQf74Fi-6" value="FK" style="shape=partialRectangle;connectable=0;fillColor=none;top=0;left=0;bottom=0;right=0;editable=1;overflow=hidden;whiteSpace=wrap;html=1;" parent="TUrB2lb7UfNqhxQf74Fi-5" vertex="1">
                    <mxGeometry width="30" height="30" as="geometry">
                        <mxRectangle width="30" height="30" as="alternateBounds"/>
                    </mxGeometry>
                </mxCell>
                <mxCell id="TUrB2lb7UfNqhxQf74Fi-7" value="category_id" style="shape=partialRectangle;connectable=0;fillColor=none;top=0;left=0;bottom=0;right=0;align=left;spacingLeft=6;overflow=hidden;whiteSpace=wrap;html=1;" parent="TUrB2lb7UfNqhxQf74Fi-5" vertex="1">
                    <mxGeometry x="30" width="150" height="30" as="geometry">
                        <mxRectangle width="150" height="30" as="alternateBounds"/>
                    </mxGeometry>
                </mxCell>
                <mxCell id="TUrB2lb7UfNqhxQf74Fi-8" value="" style="shape=tableRow;horizontal=0;startSize=0;swimlaneHead=0;swimlaneBody=0;fillColor=none;collapsible=0;dropTarget=0;points=[[0,0.5],[1,0.5]];portConstraint=eastwest;top=0;left=0;right=0;bottom=0;" parent="TUrB2lb7UfNqhxQf74Fi-1" vertex="1">
                    <mxGeometry y="90" width="180" height="30" as="geometry"/>
                </mxCell>
                <mxCell id="TUrB2lb7UfNqhxQf74Fi-9" value="" style="shape=partialRectangle;connectable=0;fillColor=none;top=0;left=0;bottom=0;right=0;editable=1;overflow=hidden;whiteSpace=wrap;html=1;" parent="TUrB2lb7UfNqhxQf74Fi-8" vertex="1">
                    <mxGeometry width="30" height="30" as="geometry">
                        <mxRectangle width="30" height="30" as="alternateBounds"/>
                    </mxGeometry>
                </mxCell>
                <mxCell id="TUrB2lb7UfNqhxQf74Fi-10" value="title" style="shape=partialRectangle;connectable=0;fillColor=none;top=0;left=0;bottom=0;right=0;align=left;spacingLeft=6;overflow=hidden;whiteSpace=wrap;html=1;" parent="TUrB2lb7UfNqhxQf74Fi-8" vertex="1">
                    <mxGeometry x="30" width="150" height="30" as="geometry">
                        <mxRectangle width="150" height="30" as="alternateBounds"/>
                    </mxGeometry>
                </mxCell>
                <mxCell id="TUrB2lb7UfNqhxQf74Fi-11" value="" style="shape=tableRow;horizontal=0;startSize=0;swimlaneHead=0;swimlaneBody=0;fillColor=none;collapsible=0;dropTarget=0;points=[[0,0.5],[1,0.5]];portConstraint=eastwest;top=0;left=0;right=0;bottom=0;" parent="TUrB2lb7UfNqhxQf74Fi-1" vertex="1">
                    <mxGeometry y="120" width="180" height="30" as="geometry"/>
                </mxCell>
                <mxCell id="TUrB2lb7UfNqhxQf74Fi-12" value="" style="shape=partialRectangle;connectable=0;fillColor=none;top=0;left=0;bottom=0;right=0;editable=1;overflow=hidden;whiteSpace=wrap;html=1;" parent="TUrB2lb7UfNqhxQf74Fi-11" vertex="1">
                    <mxGeometry width="30" height="30" as="geometry">
                        <mxRectangle width="30" height="30" as="alternateBounds"/>
                    </mxGeometry>
                </mxCell>
                <mxCell id="TUrB2lb7UfNqhxQf74Fi-13" value="author" style="shape=partialRectangle;connectable=0;fillColor=none;top=0;left=0;bottom=0;right=0;align=left;spacingLeft=6;overflow=hidden;whiteSpace=wrap;html=1;" parent="TUrB2lb7UfNqhxQf74Fi-11" vertex="1">
                    <mxGeometry x="30" width="150" height="30" as="geometry">
                        <mxRectangle width="150" height="30" as="alternateBounds"/>
                    </mxGeometry>
                </mxCell>
                <mxCell id="TUrB2lb7UfNqhxQf74Fi-78" value="" style="shape=tableRow;horizontal=0;startSize=0;swimlaneHead=0;swimlaneBody=0;fillColor=none;collapsible=0;dropTarget=0;points=[[0,0.5],[1,0.5]];portConstraint=eastwest;top=0;left=0;right=0;bottom=0;" parent="TUrB2lb7UfNqhxQf74Fi-1" vertex="1">
                    <mxGeometry y="150" width="180" height="30" as="geometry"/>
                </mxCell>
                <mxCell id="TUrB2lb7UfNqhxQf74Fi-79" value="" style="shape=partialRectangle;connectable=0;fillColor=none;top=0;left=0;bottom=0;right=0;editable=1;overflow=hidden;whiteSpace=wrap;html=1;" parent="TUrB2lb7UfNqhxQf74Fi-78" vertex="1">
                    <mxGeometry width="30" height="30" as="geometry">
                        <mxRectangle width="30" height="30" as="alternateBounds"/>
                    </mxGeometry>
                </mxCell>
                <mxCell id="TUrB2lb7UfNqhxQf74Fi-80" value="description" style="shape=partialRectangle;connectable=0;fillColor=none;top=0;left=0;bottom=0;right=0;align=left;spacingLeft=6;overflow=hidden;whiteSpace=wrap;html=1;" parent="TUrB2lb7UfNqhxQf74Fi-78" vertex="1">
                    <mxGeometry x="30" width="150" height="30" as="geometry">
                        <mxRectangle width="150" height="30" as="alternateBounds"/>
                    </mxGeometry>
                </mxCell>
                <mxCell id="TUrB2lb7UfNqhxQf74Fi-93" value="" style="shape=tableRow;horizontal=0;startSize=0;swimlaneHead=0;swimlaneBody=0;fillColor=none;collapsible=0;dropTarget=0;points=[[0,0.5],[1,0.5]];portConstraint=eastwest;top=0;left=0;right=0;bottom=0;" parent="TUrB2lb7UfNqhxQf74Fi-1" vertex="1">
                    <mxGeometry y="180" width="180" height="30" as="geometry"/>
                </mxCell>
                <mxCell id="TUrB2lb7UfNqhxQf74Fi-94" value="" style="shape=partialRectangle;connectable=0;fillColor=none;top=0;left=0;bottom=0;right=0;editable=1;overflow=hidden;whiteSpace=wrap;html=1;" parent="TUrB2lb7UfNqhxQf74Fi-93" vertex="1">
                    <mxGeometry width="30" height="30" as="geometry">
                        <mxRectangle width="30" height="30" as="alternateBounds"/>
                    </mxGeometry>
                </mxCell>
                <mxCell id="TUrB2lb7UfNqhxQf74Fi-95" value="cover" style="shape=partialRectangle;connectable=0;fillColor=none;top=0;left=0;bottom=0;right=0;align=left;spacingLeft=6;overflow=hidden;whiteSpace=wrap;html=1;" parent="TUrB2lb7UfNqhxQf74Fi-93" vertex="1">
                    <mxGeometry x="30" width="150" height="30" as="geometry">
                        <mxRectangle width="150" height="30" as="alternateBounds"/>
                    </mxGeometry>
                </mxCell>
                <mxCell id="TUrB2lb7UfNqhxQf74Fi-81" value="" style="shape=tableRow;horizontal=0;startSize=0;swimlaneHead=0;swimlaneBody=0;fillColor=none;collapsible=0;dropTarget=0;points=[[0,0.5],[1,0.5]];portConstraint=eastwest;top=0;left=0;right=0;bottom=0;" parent="TUrB2lb7UfNqhxQf74Fi-1" vertex="1">
                    <mxGeometry y="210" width="180" height="30" as="geometry"/>
                </mxCell>
                <mxCell id="TUrB2lb7UfNqhxQf74Fi-82" value="" style="shape=partialRectangle;connectable=0;fillColor=none;top=0;left=0;bottom=0;right=0;editable=1;overflow=hidden;whiteSpace=wrap;html=1;" parent="TUrB2lb7UfNqhxQf74Fi-81" vertex="1">
                    <mxGeometry width="30" height="30" as="geometry">
                        <mxRectangle width="30" height="30" as="alternateBounds"/>
                    </mxGeometry>
                </mxCell>
                <mxCell id="TUrB2lb7UfNqhxQf74Fi-83" value="publisher" style="shape=partialRectangle;connectable=0;fillColor=none;top=0;left=0;bottom=0;right=0;align=left;spacingLeft=6;overflow=hidden;whiteSpace=wrap;html=1;" parent="TUrB2lb7UfNqhxQf74Fi-81" vertex="1">
                    <mxGeometry x="30" width="150" height="30" as="geometry">
                        <mxRectangle width="150" height="30" as="alternateBounds"/>
                    </mxGeometry>
                </mxCell>
                <mxCell id="TUrB2lb7UfNqhxQf74Fi-96" value="" style="shape=tableRow;horizontal=0;startSize=0;swimlaneHead=0;swimlaneBody=0;fillColor=none;collapsible=0;dropTarget=0;points=[[0,0.5],[1,0.5]];portConstraint=eastwest;top=0;left=0;right=0;bottom=0;" parent="TUrB2lb7UfNqhxQf74Fi-1" vertex="1">
                    <mxGeometry y="240" width="180" height="30" as="geometry"/>
                </mxCell>
                <mxCell id="TUrB2lb7UfNqhxQf74Fi-97" value="" style="shape=partialRectangle;connectable=0;fillColor=none;top=0;left=0;bottom=0;right=0;editable=1;overflow=hidden;whiteSpace=wrap;html=1;" parent="TUrB2lb7UfNqhxQf74Fi-96" vertex="1">
                    <mxGeometry width="30" height="30" as="geometry">
                        <mxRectangle width="30" height="30" as="alternateBounds"/>
                    </mxGeometry>
                </mxCell>
                <mxCell id="TUrB2lb7UfNqhxQf74Fi-98" value="published_year" style="shape=partialRectangle;connectable=0;fillColor=none;top=0;left=0;bottom=0;right=0;align=left;spacingLeft=6;overflow=hidden;whiteSpace=wrap;html=1;" parent="TUrB2lb7UfNqhxQf74Fi-96" vertex="1">
                    <mxGeometry x="30" width="150" height="30" as="geometry">
                        <mxRectangle width="150" height="30" as="alternateBounds"/>
                    </mxGeometry>
                </mxCell>
                <mxCell id="TUrB2lb7UfNqhxQf74Fi-84" value="" style="shape=tableRow;horizontal=0;startSize=0;swimlaneHead=0;swimlaneBody=0;fillColor=none;collapsible=0;dropTarget=0;points=[[0,0.5],[1,0.5]];portConstraint=eastwest;top=0;left=0;right=0;bottom=0;" parent="TUrB2lb7UfNqhxQf74Fi-1" vertex="1">
                    <mxGeometry y="270" width="180" height="30" as="geometry"/>
                </mxCell>
                <mxCell id="TUrB2lb7UfNqhxQf74Fi-85" value="" style="shape=partialRectangle;connectable=0;fillColor=none;top=0;left=0;bottom=0;right=0;editable=1;overflow=hidden;whiteSpace=wrap;html=1;" parent="TUrB2lb7UfNqhxQf74Fi-84" vertex="1">
                    <mxGeometry width="30" height="30" as="geometry">
                        <mxRectangle width="30" height="30" as="alternateBounds"/>
                    </mxGeometry>
                </mxCell>
                <mxCell id="TUrB2lb7UfNqhxQf74Fi-86" value="created_at" style="shape=partialRectangle;connectable=0;fillColor=none;top=0;left=0;bottom=0;right=0;align=left;spacingLeft=6;overflow=hidden;whiteSpace=wrap;html=1;" parent="TUrB2lb7UfNqhxQf74Fi-84" vertex="1">
                    <mxGeometry x="30" width="150" height="30" as="geometry">
                        <mxRectangle width="150" height="30" as="alternateBounds"/>
                    </mxGeometry>
                </mxCell>
                <mxCell id="TUrB2lb7UfNqhxQf74Fi-87" value="" style="shape=tableRow;horizontal=0;startSize=0;swimlaneHead=0;swimlaneBody=0;fillColor=none;collapsible=0;dropTarget=0;points=[[0,0.5],[1,0.5]];portConstraint=eastwest;top=0;left=0;right=0;bottom=0;" parent="TUrB2lb7UfNqhxQf74Fi-1" vertex="1">
                    <mxGeometry y="300" width="180" height="30" as="geometry"/>
                </mxCell>
                <mxCell id="TUrB2lb7UfNqhxQf74Fi-88" value="" style="shape=partialRectangle;connectable=0;fillColor=none;top=0;left=0;bottom=0;right=0;editable=1;overflow=hidden;whiteSpace=wrap;html=1;" parent="TUrB2lb7UfNqhxQf74Fi-87" vertex="1">
                    <mxGeometry width="30" height="30" as="geometry">
                        <mxRectangle width="30" height="30" as="alternateBounds"/>
                    </mxGeometry>
                </mxCell>
                <mxCell id="TUrB2lb7UfNqhxQf74Fi-89" value="updated_at" style="shape=partialRectangle;connectable=0;fillColor=none;top=0;left=0;bottom=0;right=0;align=left;spacingLeft=6;overflow=hidden;whiteSpace=wrap;html=1;" parent="TUrB2lb7UfNqhxQf74Fi-87" vertex="1">
                    <mxGeometry x="30" width="150" height="30" as="geometry">
                        <mxRectangle width="150" height="30" as="alternateBounds"/>
                    </mxGeometry>
                </mxCell>
                <mxCell id="TUrB2lb7UfNqhxQf74Fi-14" value="users" style="shape=table;startSize=30;container=1;collapsible=1;childLayout=tableLayout;fixedRows=1;rowLines=0;fontStyle=1;align=center;resizeLast=1;html=1;" parent="1" vertex="1">
                    <mxGeometry x="550" y="60" width="180" height="210" as="geometry"/>
                </mxCell>
                <mxCell id="TUrB2lb7UfNqhxQf74Fi-15" value="" style="shape=tableRow;horizontal=0;startSize=0;swimlaneHead=0;swimlaneBody=0;fillColor=none;collapsible=0;dropTarget=0;points=[[0,0.5],[1,0.5]];portConstraint=eastwest;top=0;left=0;right=0;bottom=1;" parent="TUrB2lb7UfNqhxQf74Fi-14" vertex="1">
                    <mxGeometry y="30" width="180" height="30" as="geometry"/>
                </mxCell>
                <mxCell id="TUrB2lb7UfNqhxQf74Fi-16" value="PK" style="shape=partialRectangle;connectable=0;fillColor=none;top=0;left=0;bottom=0;right=0;fontStyle=1;overflow=hidden;whiteSpace=wrap;html=1;" parent="TUrB2lb7UfNqhxQf74Fi-15" vertex="1">
                    <mxGeometry width="30" height="30" as="geometry">
                        <mxRectangle width="30" height="30" as="alternateBounds"/>
                    </mxGeometry>
                </mxCell>
                <mxCell id="TUrB2lb7UfNqhxQf74Fi-17" value="id" style="shape=partialRectangle;connectable=0;fillColor=none;top=0;left=0;bottom=0;right=0;align=left;spacingLeft=6;fontStyle=5;overflow=hidden;whiteSpace=wrap;html=1;" parent="TUrB2lb7UfNqhxQf74Fi-15" vertex="1">
                    <mxGeometry x="30" width="150" height="30" as="geometry">
                        <mxRectangle width="150" height="30" as="alternateBounds"/>
                    </mxGeometry>
                </mxCell>
                <mxCell id="TUrB2lb7UfNqhxQf74Fi-18" value="" style="shape=tableRow;horizontal=0;startSize=0;swimlaneHead=0;swimlaneBody=0;fillColor=none;collapsible=0;dropTarget=0;points=[[0,0.5],[1,0.5]];portConstraint=eastwest;top=0;left=0;right=0;bottom=0;" parent="TUrB2lb7UfNqhxQf74Fi-14" vertex="1">
                    <mxGeometry y="60" width="180" height="30" as="geometry"/>
                </mxCell>
                <mxCell id="TUrB2lb7UfNqhxQf74Fi-19" value="" style="shape=partialRectangle;connectable=0;fillColor=none;top=0;left=0;bottom=0;right=0;editable=1;overflow=hidden;whiteSpace=wrap;html=1;" parent="TUrB2lb7UfNqhxQf74Fi-18" vertex="1">
                    <mxGeometry width="30" height="30" as="geometry">
                        <mxRectangle width="30" height="30" as="alternateBounds"/>
                    </mxGeometry>
                </mxCell>
                <mxCell id="TUrB2lb7UfNqhxQf74Fi-20" value="name" style="shape=partialRectangle;connectable=0;fillColor=none;top=0;left=0;bottom=0;right=0;align=left;spacingLeft=6;overflow=hidden;whiteSpace=wrap;html=1;" parent="TUrB2lb7UfNqhxQf74Fi-18" vertex="1">
                    <mxGeometry x="30" width="150" height="30" as="geometry">
                        <mxRectangle width="150" height="30" as="alternateBounds"/>
                    </mxGeometry>
                </mxCell>
                <mxCell id="TUrB2lb7UfNqhxQf74Fi-21" value="" style="shape=tableRow;horizontal=0;startSize=0;swimlaneHead=0;swimlaneBody=0;fillColor=none;collapsible=0;dropTarget=0;points=[[0,0.5],[1,0.5]];portConstraint=eastwest;top=0;left=0;right=0;bottom=0;" parent="TUrB2lb7UfNqhxQf74Fi-14" vertex="1">
                    <mxGeometry y="90" width="180" height="30" as="geometry"/>
                </mxCell>
                <mxCell id="TUrB2lb7UfNqhxQf74Fi-22" value="" style="shape=partialRectangle;connectable=0;fillColor=none;top=0;left=0;bottom=0;right=0;editable=1;overflow=hidden;whiteSpace=wrap;html=1;" parent="TUrB2lb7UfNqhxQf74Fi-21" vertex="1">
                    <mxGeometry width="30" height="30" as="geometry">
                        <mxRectangle width="30" height="30" as="alternateBounds"/>
                    </mxGeometry>
                </mxCell>
                <mxCell id="TUrB2lb7UfNqhxQf74Fi-23" value="email" style="shape=partialRectangle;connectable=0;fillColor=none;top=0;left=0;bottom=0;right=0;align=left;spacingLeft=6;overflow=hidden;whiteSpace=wrap;html=1;" parent="TUrB2lb7UfNqhxQf74Fi-21" vertex="1">
                    <mxGeometry x="30" width="150" height="30" as="geometry">
                        <mxRectangle width="150" height="30" as="alternateBounds"/>
                    </mxGeometry>
                </mxCell>
                <mxCell id="TUrB2lb7UfNqhxQf74Fi-24" value="" style="shape=tableRow;horizontal=0;startSize=0;swimlaneHead=0;swimlaneBody=0;fillColor=none;collapsible=0;dropTarget=0;points=[[0,0.5],[1,0.5]];portConstraint=eastwest;top=0;left=0;right=0;bottom=0;" parent="TUrB2lb7UfNqhxQf74Fi-14" vertex="1">
                    <mxGeometry y="120" width="180" height="30" as="geometry"/>
                </mxCell>
                <mxCell id="TUrB2lb7UfNqhxQf74Fi-25" value="" style="shape=partialRectangle;connectable=0;fillColor=none;top=0;left=0;bottom=0;right=0;editable=1;overflow=hidden;whiteSpace=wrap;html=1;" parent="TUrB2lb7UfNqhxQf74Fi-24" vertex="1">
                    <mxGeometry width="30" height="30" as="geometry">
                        <mxRectangle width="30" height="30" as="alternateBounds"/>
                    </mxGeometry>
                </mxCell>
                <mxCell id="TUrB2lb7UfNqhxQf74Fi-26" value="email_verified_at" style="shape=partialRectangle;connectable=0;fillColor=none;top=0;left=0;bottom=0;right=0;align=left;spacingLeft=6;overflow=hidden;whiteSpace=wrap;html=1;" parent="TUrB2lb7UfNqhxQf74Fi-24" vertex="1">
                    <mxGeometry x="30" width="150" height="30" as="geometry">
                        <mxRectangle width="150" height="30" as="alternateBounds"/>
                    </mxGeometry>
                </mxCell>
                <mxCell id="TUrB2lb7UfNqhxQf74Fi-27" value="" style="shape=tableRow;horizontal=0;startSize=0;swimlaneHead=0;swimlaneBody=0;fillColor=none;collapsible=0;dropTarget=0;points=[[0,0.5],[1,0.5]];portConstraint=eastwest;top=0;left=0;right=0;bottom=0;" parent="TUrB2lb7UfNqhxQf74Fi-14" vertex="1">
                    <mxGeometry y="150" width="180" height="30" as="geometry"/>
                </mxCell>
                <mxCell id="TUrB2lb7UfNqhxQf74Fi-28" value="" style="shape=partialRectangle;connectable=0;fillColor=none;top=0;left=0;bottom=0;right=0;editable=1;overflow=hidden;whiteSpace=wrap;html=1;" parent="TUrB2lb7UfNqhxQf74Fi-27" vertex="1">
                    <mxGeometry width="30" height="30" as="geometry">
                        <mxRectangle width="30" height="30" as="alternateBounds"/>
                    </mxGeometry>
                </mxCell>
                <mxCell id="TUrB2lb7UfNqhxQf74Fi-29" value="password" style="shape=partialRectangle;connectable=0;fillColor=none;top=0;left=0;bottom=0;right=0;align=left;spacingLeft=6;overflow=hidden;whiteSpace=wrap;html=1;" parent="TUrB2lb7UfNqhxQf74Fi-27" vertex="1">
                    <mxGeometry x="30" width="150" height="30" as="geometry">
                        <mxRectangle width="150" height="30" as="alternateBounds"/>
                    </mxGeometry>
                </mxCell>
                <mxCell id="TUrB2lb7UfNqhxQf74Fi-90" value="" style="shape=tableRow;horizontal=0;startSize=0;swimlaneHead=0;swimlaneBody=0;fillColor=none;collapsible=0;dropTarget=0;points=[[0,0.5],[1,0.5]];portConstraint=eastwest;top=0;left=0;right=0;bottom=0;" parent="TUrB2lb7UfNqhxQf74Fi-14" vertex="1">
                    <mxGeometry y="180" width="180" height="30" as="geometry"/>
                </mxCell>
                <mxCell id="TUrB2lb7UfNqhxQf74Fi-91" value="" style="shape=partialRectangle;connectable=0;fillColor=none;top=0;left=0;bottom=0;right=0;editable=1;overflow=hidden;whiteSpace=wrap;html=1;" parent="TUrB2lb7UfNqhxQf74Fi-90" vertex="1">
                    <mxGeometry width="30" height="30" as="geometry">
                        <mxRectangle width="30" height="30" as="alternateBounds"/>
                    </mxGeometry>
                </mxCell>
                <mxCell id="TUrB2lb7UfNqhxQf74Fi-92" value="is_admin" style="shape=partialRectangle;connectable=0;fillColor=none;top=0;left=0;bottom=0;right=0;align=left;spacingLeft=6;overflow=hidden;whiteSpace=wrap;html=1;" parent="TUrB2lb7UfNqhxQf74Fi-90" vertex="1">
                    <mxGeometry x="30" width="150" height="30" as="geometry">
                        <mxRectangle width="150" height="30" as="alternateBounds"/>
                    </mxGeometry>
                </mxCell>
                <mxCell id="TUrB2lb7UfNqhxQf74Fi-30" value="password_reset_tokens" style="shape=table;startSize=30;container=1;collapsible=1;childLayout=tableLayout;fixedRows=1;rowLines=0;fontStyle=1;align=center;resizeLast=1;html=1;" parent="1" vertex="1">
                    <mxGeometry x="330" y="270" width="180" height="120" as="geometry"/>
                </mxCell>
                <mxCell id="TUrB2lb7UfNqhxQf74Fi-31" value="" style="shape=tableRow;horizontal=0;startSize=0;swimlaneHead=0;swimlaneBody=0;fillColor=none;collapsible=0;dropTarget=0;points=[[0,0.5],[1,0.5]];portConstraint=eastwest;top=0;left=0;right=0;bottom=1;" parent="TUrB2lb7UfNqhxQf74Fi-30" vertex="1">
                    <mxGeometry y="30" width="180" height="30" as="geometry"/>
                </mxCell>
                <mxCell id="TUrB2lb7UfNqhxQf74Fi-32" value="PK" style="shape=partialRectangle;connectable=0;fillColor=none;top=0;left=0;bottom=0;right=0;fontStyle=1;overflow=hidden;whiteSpace=wrap;html=1;" parent="TUrB2lb7UfNqhxQf74Fi-31" vertex="1">
                    <mxGeometry width="30" height="30" as="geometry">
                        <mxRectangle width="30" height="30" as="alternateBounds"/>
                    </mxGeometry>
                </mxCell>
                <mxCell id="TUrB2lb7UfNqhxQf74Fi-33" value="email" style="shape=partialRectangle;connectable=0;fillColor=none;top=0;left=0;bottom=0;right=0;align=left;spacingLeft=6;fontStyle=5;overflow=hidden;whiteSpace=wrap;html=1;" parent="TUrB2lb7UfNqhxQf74Fi-31" vertex="1">
                    <mxGeometry x="30" width="150" height="30" as="geometry">
                        <mxRectangle width="150" height="30" as="alternateBounds"/>
                    </mxGeometry>
                </mxCell>
                <mxCell id="TUrB2lb7UfNqhxQf74Fi-34" value="" style="shape=tableRow;horizontal=0;startSize=0;swimlaneHead=0;swimlaneBody=0;fillColor=none;collapsible=0;dropTarget=0;points=[[0,0.5],[1,0.5]];portConstraint=eastwest;top=0;left=0;right=0;bottom=0;" parent="TUrB2lb7UfNqhxQf74Fi-30" vertex="1">
                    <mxGeometry y="60" width="180" height="30" as="geometry"/>
                </mxCell>
                <mxCell id="TUrB2lb7UfNqhxQf74Fi-35" value="" style="shape=partialRectangle;connectable=0;fillColor=none;top=0;left=0;bottom=0;right=0;editable=1;overflow=hidden;whiteSpace=wrap;html=1;" parent="TUrB2lb7UfNqhxQf74Fi-34" vertex="1">
                    <mxGeometry width="30" height="30" as="geometry">
                        <mxRectangle width="30" height="30" as="alternateBounds"/>
                    </mxGeometry>
                </mxCell>
                <mxCell id="TUrB2lb7UfNqhxQf74Fi-36" value="token" style="shape=partialRectangle;connectable=0;fillColor=none;top=0;left=0;bottom=0;right=0;align=left;spacingLeft=6;overflow=hidden;whiteSpace=wrap;html=1;" parent="TUrB2lb7UfNqhxQf74Fi-34" vertex="1">
                    <mxGeometry x="30" width="150" height="30" as="geometry">
                        <mxRectangle width="150" height="30" as="alternateBounds"/>
                    </mxGeometry>
                </mxCell>
                <mxCell id="TUrB2lb7UfNqhxQf74Fi-37" value="" style="shape=tableRow;horizontal=0;startSize=0;swimlaneHead=0;swimlaneBody=0;fillColor=none;collapsible=0;dropTarget=0;points=[[0,0.5],[1,0.5]];portConstraint=eastwest;top=0;left=0;right=0;bottom=0;movable=1;resizable=1;rotatable=1;deletable=1;editable=1;locked=0;connectable=1;" parent="TUrB2lb7UfNqhxQf74Fi-30" vertex="1">
                    <mxGeometry y="90" width="180" height="30" as="geometry"/>
                </mxCell>
                <mxCell id="TUrB2lb7UfNqhxQf74Fi-38" value="" style="shape=partialRectangle;connectable=0;fillColor=none;top=0;left=0;bottom=0;right=0;editable=1;overflow=hidden;whiteSpace=wrap;html=1;" parent="TUrB2lb7UfNqhxQf74Fi-37" vertex="1">
                    <mxGeometry width="30" height="30" as="geometry">
                        <mxRectangle width="30" height="30" as="alternateBounds"/>
                    </mxGeometry>
                </mxCell>
                <mxCell id="TUrB2lb7UfNqhxQf74Fi-39" value="created_at" style="shape=partialRectangle;connectable=1;fillColor=none;top=0;left=0;bottom=0;right=0;align=left;spacingLeft=6;overflow=hidden;whiteSpace=wrap;html=1;movable=1;resizable=1;rotatable=1;deletable=1;editable=1;locked=0;" parent="TUrB2lb7UfNqhxQf74Fi-37" vertex="1">
                    <mxGeometry x="30" width="150" height="30" as="geometry">
                        <mxRectangle width="150" height="30" as="alternateBounds"/>
                    </mxGeometry>
                </mxCell>
                <mxCell id="TUrB2lb7UfNqhxQf74Fi-46" value="sessions" style="shape=table;startSize=30;container=1;collapsible=1;childLayout=tableLayout;fixedRows=1;rowLines=0;fontStyle=1;align=center;resizeLast=1;html=1;" parent="1" vertex="1">
                    <mxGeometry x="550" y="310" width="180" height="210" as="geometry"/>
                </mxCell>
                <mxCell id="TUrB2lb7UfNqhxQf74Fi-47" value="" style="shape=tableRow;horizontal=0;startSize=0;swimlaneHead=0;swimlaneBody=0;fillColor=none;collapsible=0;dropTarget=0;points=[[0,0.5],[1,0.5]];portConstraint=eastwest;top=0;left=0;right=0;bottom=1;" parent="TUrB2lb7UfNqhxQf74Fi-46" vertex="1">
                    <mxGeometry y="30" width="180" height="30" as="geometry"/>
                </mxCell>
                <mxCell id="TUrB2lb7UfNqhxQf74Fi-48" value="PK" style="shape=partialRectangle;connectable=0;fillColor=none;top=0;left=0;bottom=0;right=0;fontStyle=1;overflow=hidden;whiteSpace=wrap;html=1;" parent="TUrB2lb7UfNqhxQf74Fi-47" vertex="1">
                    <mxGeometry width="30" height="30" as="geometry">
                        <mxRectangle width="30" height="30" as="alternateBounds"/>
                    </mxGeometry>
                </mxCell>
                <mxCell id="TUrB2lb7UfNqhxQf74Fi-49" value="id" style="shape=partialRectangle;connectable=0;fillColor=none;top=0;left=0;bottom=0;right=0;align=left;spacingLeft=6;fontStyle=5;overflow=hidden;whiteSpace=wrap;html=1;" parent="TUrB2lb7UfNqhxQf74Fi-47" vertex="1">
                    <mxGeometry x="30" width="150" height="30" as="geometry">
                        <mxRectangle width="150" height="30" as="alternateBounds"/>
                    </mxGeometry>
                </mxCell>
                <mxCell id="TUrB2lb7UfNqhxQf74Fi-50" value="" style="shape=tableRow;horizontal=0;startSize=0;swimlaneHead=0;swimlaneBody=0;fillColor=none;collapsible=0;dropTarget=0;points=[[0,0.5],[1,0.5]];portConstraint=eastwest;top=0;left=0;right=0;bottom=0;" parent="TUrB2lb7UfNqhxQf74Fi-46" vertex="1">
                    <mxGeometry y="60" width="180" height="30" as="geometry"/>
                </mxCell>
                <mxCell id="TUrB2lb7UfNqhxQf74Fi-51" value="FK" style="shape=partialRectangle;connectable=0;fillColor=none;top=0;left=0;bottom=0;right=0;editable=1;overflow=hidden;whiteSpace=wrap;html=1;" parent="TUrB2lb7UfNqhxQf74Fi-50" vertex="1">
                    <mxGeometry width="30" height="30" as="geometry">
                        <mxRectangle width="30" height="30" as="alternateBounds"/>
                    </mxGeometry>
                </mxCell>
                <mxCell id="TUrB2lb7UfNqhxQf74Fi-52" value="user_id" style="shape=partialRectangle;connectable=0;fillColor=none;top=0;left=0;bottom=0;right=0;align=left;spacingLeft=6;overflow=hidden;whiteSpace=wrap;html=1;" parent="TUrB2lb7UfNqhxQf74Fi-50" vertex="1">
                    <mxGeometry x="30" width="150" height="30" as="geometry">
                        <mxRectangle width="150" height="30" as="alternateBounds"/>
                    </mxGeometry>
                </mxCell>
                <mxCell id="TUrB2lb7UfNqhxQf74Fi-53" value="" style="shape=tableRow;horizontal=0;startSize=0;swimlaneHead=0;swimlaneBody=0;fillColor=none;collapsible=0;dropTarget=0;points=[[0,0.5],[1,0.5]];portConstraint=eastwest;top=0;left=0;right=0;bottom=0;movable=1;resizable=1;rotatable=1;deletable=1;editable=1;locked=0;connectable=1;" parent="TUrB2lb7UfNqhxQf74Fi-46" vertex="1">
                    <mxGeometry y="90" width="180" height="30" as="geometry"/>
                </mxCell>
                <mxCell id="TUrB2lb7UfNqhxQf74Fi-54" value="" style="shape=partialRectangle;connectable=0;fillColor=none;top=0;left=0;bottom=0;right=0;editable=1;overflow=hidden;whiteSpace=wrap;html=1;" parent="TUrB2lb7UfNqhxQf74Fi-53" vertex="1">
                    <mxGeometry width="30" height="30" as="geometry">
                        <mxRectangle width="30" height="30" as="alternateBounds"/>
                    </mxGeometry>
                </mxCell>
                <mxCell id="TUrB2lb7UfNqhxQf74Fi-55" value="ip_address" style="shape=partialRectangle;connectable=1;fillColor=none;top=0;left=0;bottom=0;right=0;align=left;spacingLeft=6;overflow=hidden;whiteSpace=wrap;html=1;movable=1;resizable=1;rotatable=1;deletable=1;editable=1;locked=0;" parent="TUrB2lb7UfNqhxQf74Fi-53" vertex="1">
                    <mxGeometry x="30" width="150" height="30" as="geometry">
                        <mxRectangle width="150" height="30" as="alternateBounds"/>
                    </mxGeometry>
                </mxCell>
                <mxCell id="TUrB2lb7UfNqhxQf74Fi-56" value="" style="shape=tableRow;horizontal=0;startSize=0;swimlaneHead=0;swimlaneBody=0;fillColor=none;collapsible=0;dropTarget=0;points=[[0,0.5],[1,0.5]];portConstraint=eastwest;top=0;left=0;right=0;bottom=0;movable=1;resizable=1;rotatable=1;deletable=1;editable=1;locked=0;connectable=1;" parent="TUrB2lb7UfNqhxQf74Fi-46" vertex="1">
                    <mxGeometry y="120" width="180" height="30" as="geometry"/>
                </mxCell>
                <mxCell id="TUrB2lb7UfNqhxQf74Fi-57" value="" style="shape=partialRectangle;connectable=0;fillColor=none;top=0;left=0;bottom=0;right=0;editable=1;overflow=hidden;whiteSpace=wrap;html=1;" parent="TUrB2lb7UfNqhxQf74Fi-56" vertex="1">
                    <mxGeometry width="30" height="30" as="geometry">
                        <mxRectangle width="30" height="30" as="alternateBounds"/>
                    </mxGeometry>
                </mxCell>
                <mxCell id="TUrB2lb7UfNqhxQf74Fi-58" value="user_agent" style="shape=partialRectangle;connectable=1;fillColor=none;top=0;left=0;bottom=0;right=0;align=left;spacingLeft=6;overflow=hidden;whiteSpace=wrap;html=1;movable=1;resizable=1;rotatable=1;deletable=1;editable=1;locked=0;" parent="TUrB2lb7UfNqhxQf74Fi-56" vertex="1">
                    <mxGeometry x="30" width="150" height="30" as="geometry">
                        <mxRectangle width="150" height="30" as="alternateBounds"/>
                    </mxGeometry>
                </mxCell>
                <mxCell id="TUrB2lb7UfNqhxQf74Fi-59" value="" style="shape=tableRow;horizontal=0;startSize=0;swimlaneHead=0;swimlaneBody=0;fillColor=none;collapsible=0;dropTarget=0;points=[[0,0.5],[1,0.5]];portConstraint=eastwest;top=0;left=0;right=0;bottom=0;movable=1;resizable=1;rotatable=1;deletable=1;editable=1;locked=0;connectable=1;" parent="TUrB2lb7UfNqhxQf74Fi-46" vertex="1">
                    <mxGeometry y="150" width="180" height="30" as="geometry"/>
                </mxCell>
                <mxCell id="TUrB2lb7UfNqhxQf74Fi-60" value="" style="shape=partialRectangle;connectable=0;fillColor=none;top=0;left=0;bottom=0;right=0;editable=1;overflow=hidden;whiteSpace=wrap;html=1;" parent="TUrB2lb7UfNqhxQf74Fi-59" vertex="1">
                    <mxGeometry width="30" height="30" as="geometry">
                        <mxRectangle width="30" height="30" as="alternateBounds"/>
                    </mxGeometry>
                </mxCell>
                <mxCell id="TUrB2lb7UfNqhxQf74Fi-61" value="payload" style="shape=partialRectangle;connectable=1;fillColor=none;top=0;left=0;bottom=0;right=0;align=left;spacingLeft=6;overflow=hidden;whiteSpace=wrap;html=1;movable=1;resizable=1;rotatable=1;deletable=1;editable=1;locked=0;" parent="TUrB2lb7UfNqhxQf74Fi-59" vertex="1">
                    <mxGeometry x="30" width="150" height="30" as="geometry">
                        <mxRectangle width="150" height="30" as="alternateBounds"/>
                    </mxGeometry>
                </mxCell>
                <mxCell id="TUrB2lb7UfNqhxQf74Fi-62" value="" style="shape=tableRow;horizontal=0;startSize=0;swimlaneHead=0;swimlaneBody=0;fillColor=none;collapsible=0;dropTarget=0;points=[[0,0.5],[1,0.5]];portConstraint=eastwest;top=0;left=0;right=0;bottom=0;movable=1;resizable=1;rotatable=1;deletable=1;editable=1;locked=0;connectable=1;" parent="TUrB2lb7UfNqhxQf74Fi-46" vertex="1">
                    <mxGeometry y="180" width="180" height="30" as="geometry"/>
                </mxCell>
                <mxCell id="TUrB2lb7UfNqhxQf74Fi-63" value="" style="shape=partialRectangle;connectable=0;fillColor=none;top=0;left=0;bottom=0;right=0;editable=1;overflow=hidden;whiteSpace=wrap;html=1;" parent="TUrB2lb7UfNqhxQf74Fi-62" vertex="1">
                    <mxGeometry width="30" height="30" as="geometry">
                        <mxRectangle width="30" height="30" as="alternateBounds"/>
                    </mxGeometry>
                </mxCell>
                <mxCell id="TUrB2lb7UfNqhxQf74Fi-64" value="last_activity" style="shape=partialRectangle;connectable=1;fillColor=none;top=0;left=0;bottom=0;right=0;align=left;spacingLeft=6;overflow=hidden;whiteSpace=wrap;html=1;movable=1;resizable=1;rotatable=1;deletable=1;editable=1;locked=0;" parent="TUrB2lb7UfNqhxQf74Fi-62" vertex="1">
                    <mxGeometry x="30" width="150" height="30" as="geometry">
                        <mxRectangle width="150" height="30" as="alternateBounds"/>
                    </mxGeometry>
                </mxCell>
                <mxCell id="TUrB2lb7UfNqhxQf74Fi-65" value="categories" style="shape=table;startSize=30;container=1;collapsible=1;childLayout=tableLayout;fixedRows=1;rowLines=0;fontStyle=1;align=center;resizeLast=1;html=1;" parent="1" vertex="1">
                    <mxGeometry x="330" y="60" width="180" height="150" as="geometry"/>
                </mxCell>
                <mxCell id="TUrB2lb7UfNqhxQf74Fi-66" value="" style="shape=tableRow;horizontal=0;startSize=0;swimlaneHead=0;swimlaneBody=0;fillColor=none;collapsible=0;dropTarget=0;points=[[0,0.5],[1,0.5]];portConstraint=eastwest;top=0;left=0;right=0;bottom=1;" parent="TUrB2lb7UfNqhxQf74Fi-65" vertex="1">
                    <mxGeometry y="30" width="180" height="30" as="geometry"/>
                </mxCell>
                <mxCell id="TUrB2lb7UfNqhxQf74Fi-67" value="PK" style="shape=partialRectangle;connectable=0;fillColor=none;top=0;left=0;bottom=0;right=0;fontStyle=1;overflow=hidden;whiteSpace=wrap;html=1;" parent="TUrB2lb7UfNqhxQf74Fi-66" vertex="1">
                    <mxGeometry width="30" height="30" as="geometry">
                        <mxRectangle width="30" height="30" as="alternateBounds"/>
                    </mxGeometry>
                </mxCell>
                <mxCell id="TUrB2lb7UfNqhxQf74Fi-68" value="id" style="shape=partialRectangle;connectable=0;fillColor=none;top=0;left=0;bottom=0;right=0;align=left;spacingLeft=6;fontStyle=5;overflow=hidden;whiteSpace=wrap;html=1;" parent="TUrB2lb7UfNqhxQf74Fi-66" vertex="1">
                    <mxGeometry x="30" width="150" height="30" as="geometry">
                        <mxRectangle width="150" height="30" as="alternateBounds"/>
                    </mxGeometry>
                </mxCell>
                <mxCell id="TUrB2lb7UfNqhxQf74Fi-69" value="" style="shape=tableRow;horizontal=0;startSize=0;swimlaneHead=0;swimlaneBody=0;fillColor=none;collapsible=0;dropTarget=0;points=[[0,0.5],[1,0.5]];portConstraint=eastwest;top=0;left=0;right=0;bottom=0;" parent="TUrB2lb7UfNqhxQf74Fi-65" vertex="1">
                    <mxGeometry y="60" width="180" height="30" as="geometry"/>
                </mxCell>
                <mxCell id="TUrB2lb7UfNqhxQf74Fi-70" value="" style="shape=partialRectangle;connectable=0;fillColor=none;top=0;left=0;bottom=0;right=0;editable=1;overflow=hidden;whiteSpace=wrap;html=1;" parent="TUrB2lb7UfNqhxQf74Fi-69" vertex="1">
                    <mxGeometry width="30" height="30" as="geometry">
                        <mxRectangle width="30" height="30" as="alternateBounds"/>
                    </mxGeometry>
                </mxCell>
                <mxCell id="TUrB2lb7UfNqhxQf74Fi-71" value="name" style="shape=partialRectangle;connectable=0;fillColor=none;top=0;left=0;bottom=0;right=0;align=left;spacingLeft=6;overflow=hidden;whiteSpace=wrap;html=1;" parent="TUrB2lb7UfNqhxQf74Fi-69" vertex="1">
                    <mxGeometry x="30" width="150" height="30" as="geometry">
                        <mxRectangle width="150" height="30" as="alternateBounds"/>
                    </mxGeometry>
                </mxCell>
                <mxCell id="TUrB2lb7UfNqhxQf74Fi-72" value="" style="shape=tableRow;horizontal=0;startSize=0;swimlaneHead=0;swimlaneBody=0;fillColor=none;collapsible=0;dropTarget=0;points=[[0,0.5],[1,0.5]];portConstraint=eastwest;top=0;left=0;right=0;bottom=0;" parent="TUrB2lb7UfNqhxQf74Fi-65" vertex="1">
                    <mxGeometry y="90" width="180" height="30" as="geometry"/>
                </mxCell>
                <mxCell id="TUrB2lb7UfNqhxQf74Fi-73" value="" style="shape=partialRectangle;connectable=0;fillColor=none;top=0;left=0;bottom=0;right=0;editable=1;overflow=hidden;whiteSpace=wrap;html=1;" parent="TUrB2lb7UfNqhxQf74Fi-72" vertex="1">
                    <mxGeometry width="30" height="30" as="geometry">
                        <mxRectangle width="30" height="30" as="alternateBounds"/>
                    </mxGeometry>
                </mxCell>
                <mxCell id="TUrB2lb7UfNqhxQf74Fi-74" value="created_at" style="shape=partialRectangle;connectable=0;fillColor=none;top=0;left=0;bottom=0;right=0;align=left;spacingLeft=6;overflow=hidden;whiteSpace=wrap;html=1;" parent="TUrB2lb7UfNqhxQf74Fi-72" vertex="1">
                    <mxGeometry x="30" width="150" height="30" as="geometry">
                        <mxRectangle width="150" height="30" as="alternateBounds"/>
                    </mxGeometry>
                </mxCell>
                <mxCell id="TUrB2lb7UfNqhxQf74Fi-75" value="" style="shape=tableRow;horizontal=0;startSize=0;swimlaneHead=0;swimlaneBody=0;fillColor=none;collapsible=0;dropTarget=0;points=[[0,0.5],[1,0.5]];portConstraint=eastwest;top=0;left=0;right=0;bottom=0;" parent="TUrB2lb7UfNqhxQf74Fi-65" vertex="1">
                    <mxGeometry y="120" width="180" height="30" as="geometry"/>
                </mxCell>
                <mxCell id="TUrB2lb7UfNqhxQf74Fi-76" value="" style="shape=partialRectangle;connectable=0;fillColor=none;top=0;left=0;bottom=0;right=0;editable=1;overflow=hidden;whiteSpace=wrap;html=1;" parent="TUrB2lb7UfNqhxQf74Fi-75" vertex="1">
                    <mxGeometry width="30" height="30" as="geometry">
                        <mxRectangle width="30" height="30" as="alternateBounds"/>
                    </mxGeometry>
                </mxCell>
                <mxCell id="TUrB2lb7UfNqhxQf74Fi-77" value="updated_at" style="shape=partialRectangle;connectable=0;fillColor=none;top=0;left=0;bottom=0;right=0;align=left;spacingLeft=6;overflow=hidden;whiteSpace=wrap;html=1;" parent="TUrB2lb7UfNqhxQf74Fi-75" vertex="1">
                    <mxGeometry x="30" width="150" height="30" as="geometry">
                        <mxRectangle width="150" height="30" as="alternateBounds"/>
                    </mxGeometry>
                </mxCell>
                <mxCell id="TUrB2lb7UfNqhxQf74Fi-99" value="book_files" style="shape=table;startSize=30;container=1;collapsible=1;childLayout=tableLayout;fixedRows=1;rowLines=0;fontStyle=1;align=center;resizeLast=1;html=1;" parent="1" vertex="1">
                    <mxGeometry x="100" y="415" width="180" height="270" as="geometry"/>
                </mxCell>
                <mxCell id="TUrB2lb7UfNqhxQf74Fi-100" value="" style="shape=tableRow;horizontal=0;startSize=0;swimlaneHead=0;swimlaneBody=0;fillColor=none;collapsible=0;dropTarget=0;points=[[0,0.5],[1,0.5]];portConstraint=eastwest;top=0;left=0;right=0;bottom=1;" parent="TUrB2lb7UfNqhxQf74Fi-99" vertex="1">
                    <mxGeometry y="30" width="180" height="30" as="geometry"/>
                </mxCell>
                <mxCell id="TUrB2lb7UfNqhxQf74Fi-101" value="PK" style="shape=partialRectangle;connectable=0;fillColor=none;top=0;left=0;bottom=0;right=0;fontStyle=1;overflow=hidden;whiteSpace=wrap;html=1;" parent="TUrB2lb7UfNqhxQf74Fi-100" vertex="1">
                    <mxGeometry width="30" height="30" as="geometry">
                        <mxRectangle width="30" height="30" as="alternateBounds"/>
                    </mxGeometry>
                </mxCell>
                <mxCell id="TUrB2lb7UfNqhxQf74Fi-102" value="id" style="shape=partialRectangle;connectable=0;fillColor=none;top=0;left=0;bottom=0;right=0;align=left;spacingLeft=6;fontStyle=5;overflow=hidden;whiteSpace=wrap;html=1;" parent="TUrB2lb7UfNqhxQf74Fi-100" vertex="1">
                    <mxGeometry x="30" width="150" height="30" as="geometry">
                        <mxRectangle width="150" height="30" as="alternateBounds"/>
                    </mxGeometry>
                </mxCell>
                <mxCell id="TUrB2lb7UfNqhxQf74Fi-103" value="" style="shape=tableRow;horizontal=0;startSize=0;swimlaneHead=0;swimlaneBody=0;fillColor=none;collapsible=0;dropTarget=0;points=[[0,0.5],[1,0.5]];portConstraint=eastwest;top=0;left=0;right=0;bottom=0;" parent="TUrB2lb7UfNqhxQf74Fi-99" vertex="1">
                    <mxGeometry y="60" width="180" height="30" as="geometry"/>
                </mxCell>
                <mxCell id="TUrB2lb7UfNqhxQf74Fi-104" value="FK" style="shape=partialRectangle;connectable=0;fillColor=none;top=0;left=0;bottom=0;right=0;editable=1;overflow=hidden;whiteSpace=wrap;html=1;" parent="TUrB2lb7UfNqhxQf74Fi-103" vertex="1">
                    <mxGeometry width="30" height="30" as="geometry">
                        <mxRectangle width="30" height="30" as="alternateBounds"/>
                    </mxGeometry>
                </mxCell>
                <mxCell id="TUrB2lb7UfNqhxQf74Fi-105" value="book_id" style="shape=partialRectangle;connectable=0;fillColor=none;top=0;left=0;bottom=0;right=0;align=left;spacingLeft=6;overflow=hidden;whiteSpace=wrap;html=1;" parent="TUrB2lb7UfNqhxQf74Fi-103" vertex="1">
                    <mxGeometry x="30" width="150" height="30" as="geometry">
                        <mxRectangle width="150" height="30" as="alternateBounds"/>
                    </mxGeometry>
                </mxCell>
                <mxCell id="TUrB2lb7UfNqhxQf74Fi-106" value="" style="shape=tableRow;horizontal=0;startSize=0;swimlaneHead=0;swimlaneBody=0;fillColor=none;collapsible=0;dropTarget=0;points=[[0,0.5],[1,0.5]];portConstraint=eastwest;top=0;left=0;right=0;bottom=0;" parent="TUrB2lb7UfNqhxQf74Fi-99" vertex="1">
                    <mxGeometry y="90" width="180" height="30" as="geometry"/>
                </mxCell>
                <mxCell id="TUrB2lb7UfNqhxQf74Fi-107" value="" style="shape=partialRectangle;connectable=0;fillColor=none;top=0;left=0;bottom=0;right=0;editable=1;overflow=hidden;whiteSpace=wrap;html=1;" parent="TUrB2lb7UfNqhxQf74Fi-106" vertex="1">
                    <mxGeometry width="30" height="30" as="geometry">
                        <mxRectangle width="30" height="30" as="alternateBounds"/>
                    </mxGeometry>
                </mxCell>
                <mxCell id="TUrB2lb7UfNqhxQf74Fi-108" value="filename" style="shape=partialRectangle;connectable=0;fillColor=none;top=0;left=0;bottom=0;right=0;align=left;spacingLeft=6;overflow=hidden;whiteSpace=wrap;html=1;" parent="TUrB2lb7UfNqhxQf74Fi-106" vertex="1">
                    <mxGeometry x="30" width="150" height="30" as="geometry">
                        <mxRectangle width="150" height="30" as="alternateBounds"/>
                    </mxGeometry>
                </mxCell>
                <mxCell id="TUrB2lb7UfNqhxQf74Fi-109" value="" style="shape=tableRow;horizontal=0;startSize=0;swimlaneHead=0;swimlaneBody=0;fillColor=none;collapsible=0;dropTarget=0;points=[[0,0.5],[1,0.5]];portConstraint=eastwest;top=0;left=0;right=0;bottom=0;" parent="TUrB2lb7UfNqhxQf74Fi-99" vertex="1">
                    <mxGeometry y="120" width="180" height="30" as="geometry"/>
                </mxCell>
                <mxCell id="TUrB2lb7UfNqhxQf74Fi-110" value="" style="shape=partialRectangle;connectable=0;fillColor=none;top=0;left=0;bottom=0;right=0;editable=1;overflow=hidden;whiteSpace=wrap;html=1;" parent="TUrB2lb7UfNqhxQf74Fi-109" vertex="1">
                    <mxGeometry width="30" height="30" as="geometry">
                        <mxRectangle width="30" height="30" as="alternateBounds"/>
                    </mxGeometry>
                </mxCell>
                <mxCell id="TUrB2lb7UfNqhxQf74Fi-111" value="path" style="shape=partialRectangle;connectable=0;fillColor=none;top=0;left=0;bottom=0;right=0;align=left;spacingLeft=6;overflow=hidden;whiteSpace=wrap;html=1;" parent="TUrB2lb7UfNqhxQf74Fi-109" vertex="1">
                    <mxGeometry x="30" width="150" height="30" as="geometry">
                        <mxRectangle width="150" height="30" as="alternateBounds"/>
                    </mxGeometry>
                </mxCell>
                <mxCell id="TUrB2lb7UfNqhxQf74Fi-112" value="" style="shape=tableRow;horizontal=0;startSize=0;swimlaneHead=0;swimlaneBody=0;fillColor=none;collapsible=0;dropTarget=0;points=[[0,0.5],[1,0.5]];portConstraint=eastwest;top=0;left=0;right=0;bottom=0;" parent="TUrB2lb7UfNqhxQf74Fi-99" vertex="1">
                    <mxGeometry y="150" width="180" height="30" as="geometry"/>
                </mxCell>
                <mxCell id="TUrB2lb7UfNqhxQf74Fi-113" value="" style="shape=partialRectangle;connectable=0;fillColor=none;top=0;left=0;bottom=0;right=0;editable=1;overflow=hidden;whiteSpace=wrap;html=1;" parent="TUrB2lb7UfNqhxQf74Fi-112" vertex="1">
                    <mxGeometry width="30" height="30" as="geometry">
                        <mxRectangle width="30" height="30" as="alternateBounds"/>
                    </mxGeometry>
                </mxCell>
                <mxCell id="TUrB2lb7UfNqhxQf74Fi-114" value="mime_type" style="shape=partialRectangle;connectable=0;fillColor=none;top=0;left=0;bottom=0;right=0;align=left;spacingLeft=6;overflow=hidden;whiteSpace=wrap;html=1;" parent="TUrB2lb7UfNqhxQf74Fi-112" vertex="1">
                    <mxGeometry x="30" width="150" height="30" as="geometry">
                        <mxRectangle width="150" height="30" as="alternateBounds"/>
                    </mxGeometry>
                </mxCell>
                <mxCell id="TUrB2lb7UfNqhxQf74Fi-115" value="" style="shape=tableRow;horizontal=0;startSize=0;swimlaneHead=0;swimlaneBody=0;fillColor=none;collapsible=0;dropTarget=0;points=[[0,0.5],[1,0.5]];portConstraint=eastwest;top=0;left=0;right=0;bottom=0;" parent="TUrB2lb7UfNqhxQf74Fi-99" vertex="1">
                    <mxGeometry y="180" width="180" height="30" as="geometry"/>
                </mxCell>
                <mxCell id="TUrB2lb7UfNqhxQf74Fi-116" value="" style="shape=partialRectangle;connectable=0;fillColor=none;top=0;left=0;bottom=0;right=0;editable=1;overflow=hidden;whiteSpace=wrap;html=1;" parent="TUrB2lb7UfNqhxQf74Fi-115" vertex="1">
                    <mxGeometry width="30" height="30" as="geometry">
                        <mxRectangle width="30" height="30" as="alternateBounds"/>
                    </mxGeometry>
                </mxCell>
                <mxCell id="TUrB2lb7UfNqhxQf74Fi-117" value="size" style="shape=partialRectangle;connectable=0;fillColor=none;top=0;left=0;bottom=0;right=0;align=left;spacingLeft=6;overflow=hidden;whiteSpace=wrap;html=1;" parent="TUrB2lb7UfNqhxQf74Fi-115" vertex="1">
                    <mxGeometry x="30" width="150" height="30" as="geometry">
                        <mxRectangle width="150" height="30" as="alternateBounds"/>
                    </mxGeometry>
                </mxCell>
                <mxCell id="TUrB2lb7UfNqhxQf74Fi-118" value="" style="shape=tableRow;horizontal=0;startSize=0;swimlaneHead=0;swimlaneBody=0;fillColor=none;collapsible=0;dropTarget=0;points=[[0,0.5],[1,0.5]];portConstraint=eastwest;top=0;left=0;right=0;bottom=0;" parent="TUrB2lb7UfNqhxQf74Fi-99" vertex="1">
                    <mxGeometry y="210" width="180" height="30" as="geometry"/>
                </mxCell>
                <mxCell id="TUrB2lb7UfNqhxQf74Fi-119" value="" style="shape=partialRectangle;connectable=0;fillColor=none;top=0;left=0;bottom=0;right=0;editable=1;overflow=hidden;whiteSpace=wrap;html=1;" parent="TUrB2lb7UfNqhxQf74Fi-118" vertex="1">
                    <mxGeometry width="30" height="30" as="geometry">
                        <mxRectangle width="30" height="30" as="alternateBounds"/>
                    </mxGeometry>
                </mxCell>
                <mxCell id="TUrB2lb7UfNqhxQf74Fi-120" value="created_at" style="shape=partialRectangle;connectable=0;fillColor=none;top=0;left=0;bottom=0;right=0;align=left;spacingLeft=6;overflow=hidden;whiteSpace=wrap;html=1;" parent="TUrB2lb7UfNqhxQf74Fi-118" vertex="1">
                    <mxGeometry x="30" width="150" height="30" as="geometry">
                        <mxRectangle width="150" height="30" as="alternateBounds"/>
                    </mxGeometry>
                </mxCell>
                <mxCell id="TUrB2lb7UfNqhxQf74Fi-121" value="" style="shape=tableRow;horizontal=0;startSize=0;swimlaneHead=0;swimlaneBody=0;fillColor=none;collapsible=0;dropTarget=0;points=[[0,0.5],[1,0.5]];portConstraint=eastwest;top=0;left=0;right=0;bottom=0;" parent="TUrB2lb7UfNqhxQf74Fi-99" vertex="1">
                    <mxGeometry y="240" width="180" height="30" as="geometry"/>
                </mxCell>
                <mxCell id="TUrB2lb7UfNqhxQf74Fi-122" value="" style="shape=partialRectangle;connectable=0;fillColor=none;top=0;left=0;bottom=0;right=0;editable=1;overflow=hidden;whiteSpace=wrap;html=1;" parent="TUrB2lb7UfNqhxQf74Fi-121" vertex="1">
                    <mxGeometry width="30" height="30" as="geometry">
                        <mxRectangle width="30" height="30" as="alternateBounds"/>
                    </mxGeometry>
                </mxCell>
                <mxCell id="TUrB2lb7UfNqhxQf74Fi-123" value="updated_at" style="shape=partialRectangle;connectable=0;fillColor=none;top=0;left=0;bottom=0;right=0;align=left;spacingLeft=6;overflow=hidden;whiteSpace=wrap;html=1;" parent="TUrB2lb7UfNqhxQf74Fi-121" vertex="1">
                    <mxGeometry x="30" width="150" height="30" as="geometry">
                        <mxRectangle width="150" height="30" as="alternateBounds"/>
                    </mxGeometry>
                </mxCell>
            </root>
        </mxGraphModel>
    </diagram>
    <diagram id="DytUgId-4SEyrMzmg4R9" name="Flowchart">
        <mxGraphModel dx="3510" dy="2073" grid="1" gridSize="10" guides="1" tooltips="1" connect="1" arrows="1" fold="1" page="1" pageScale="1" pageWidth="850" pageHeight="1100" math="0" shadow="0">
            <root>
                <mxCell id="0"/>
                <mxCell id="1" parent="0"/>
                <mxCell id="vQexvPJKmokWHnE8e-SK-1" value="Admin Features" style="whiteSpace=wrap;strokeWidth=2;" parent="1" vertex="1">
                    <mxGeometry x="20" y="620" width="1576" height="379" as="geometry"/>
                </mxCell>
                <mxCell id="vQexvPJKmokWHnE8e-SK-2" value="User Features" style="whiteSpace=wrap;strokeWidth=2;" parent="1" vertex="1">
                    <mxGeometry x="1616" y="470" width="497" height="254" as="geometry"/>
                </mxCell>
                <mxCell id="vQexvPJKmokWHnE8e-SK-3" value="Authentication" style="whiteSpace=wrap;strokeWidth=2;" parent="1" vertex="1">
                    <mxGeometry x="1620" y="295" width="565" height="104" as="geometry"/>
                </mxCell>
                <mxCell id="vQexvPJKmokWHnE8e-SK-4" value="Public Access" style="whiteSpace=wrap;strokeWidth=2;" parent="1" vertex="1">
                    <mxGeometry x="146" y="20" width="1008" height="379" as="geometry"/>
                </mxCell>
                <mxCell id="vQexvPJKmokWHnE8e-SK-5" value="Welcome Page" style="whiteSpace=wrap;strokeWidth=2;" parent="1" vertex="1">
                    <mxGeometry x="892" y="45" width="168" height="54" as="geometry"/>
                </mxCell>
                <mxCell id="vQexvPJKmokWHnE8e-SK-6" value="Books Index" style="whiteSpace=wrap;strokeWidth=2;" parent="1" vertex="1">
                    <mxGeometry x="334" y="170" width="148" height="54" as="geometry"/>
                </mxCell>
                <mxCell id="vQexvPJKmokWHnE8e-SK-7" value="Book Show" style="whiteSpace=wrap;strokeWidth=2;" parent="1" vertex="1">
                    <mxGeometry x="385" y="320" width="141" height="54" as="geometry"/>
                </mxCell>
                <mxCell id="vQexvPJKmokWHnE8e-SK-8" value="Login" style="whiteSpace=wrap;strokeWidth=2;" parent="1" vertex="1">
                    <mxGeometry x="1825" y="320" width="99" height="54" as="geometry"/>
                </mxCell>
                <mxCell id="vQexvPJKmokWHnE8e-SK-9" value="Register" style="whiteSpace=wrap;strokeWidth=2;" parent="1" vertex="1">
                    <mxGeometry x="1655" y="320" width="120" height="54" as="geometry"/>
                </mxCell>
                <mxCell id="vQexvPJKmokWHnE8e-SK-10" value="Reset Password" style="whiteSpace=wrap;strokeWidth=2;" parent="1" vertex="1">
                    <mxGeometry x="1974" y="320" width="177" height="54" as="geometry"/>
                </mxCell>
                <mxCell id="vQexvPJKmokWHnE8e-SK-11" value="User Dashboard" style="whiteSpace=wrap;strokeWidth=2;" parent="1" vertex="1">
                    <mxGeometry x="1656" y="495" width="177" height="54" as="geometry"/>
                </mxCell>
                <mxCell id="vQexvPJKmokWHnE8e-SK-12" value="Download Book" style="whiteSpace=wrap;strokeWidth=2;" parent="1" vertex="1">
                    <mxGeometry x="1906" y="495" width="172" height="54" as="geometry"/>
                </mxCell>
                <mxCell id="vQexvPJKmokWHnE8e-SK-13" value="Profile Management" style="whiteSpace=wrap;strokeWidth=2;" parent="1" vertex="1">
                    <mxGeometry x="1780" y="645" width="203" height="54" as="geometry"/>
                </mxCell>
                <mxCell id="vQexvPJKmokWHnE8e-SK-14" value="Admin Dashboard" style="whiteSpace=wrap;strokeWidth=2;" parent="1" vertex="1">
                    <mxGeometry x="528" y="645" width="188" height="54" as="geometry"/>
                </mxCell>
                <mxCell id="vQexvPJKmokWHnE8e-SK-15" value="View Stats" style="whiteSpace=wrap;strokeWidth=2;" parent="1" vertex="1">
                    <mxGeometry x="55" y="795" width="135" height="54" as="geometry"/>
                </mxCell>
                <mxCell id="vQexvPJKmokWHnE8e-SK-16" value="Books Management" style="whiteSpace=wrap;strokeWidth=2;" parent="1" vertex="1">
                    <mxGeometry x="487" y="795" width="202" height="54" as="geometry"/>
                </mxCell>
                <mxCell id="vQexvPJKmokWHnE8e-SK-17" value="Categories Management" style="whiteSpace=wrap;strokeWidth=2;" parent="1" vertex="1">
                    <mxGeometry x="989" y="795" width="235" height="54" as="geometry"/>
                </mxCell>
                <mxCell id="vQexvPJKmokWHnE8e-SK-18" value="Book Create Form" style="whiteSpace=wrap;strokeWidth=2;" parent="1" vertex="1">
                    <mxGeometry x="130" y="920" width="191" height="54" as="geometry"/>
                </mxCell>
                <mxCell id="vQexvPJKmokWHnE8e-SK-19" value="Book Edit Form" style="whiteSpace=wrap;strokeWidth=2;" parent="1" vertex="1">
                    <mxGeometry x="371" y="920" width="170" height="54" as="geometry"/>
                </mxCell>
                <mxCell id="vQexvPJKmokWHnE8e-SK-20" value="Book Delete" style="whiteSpace=wrap;strokeWidth=2;" parent="1" vertex="1">
                    <mxGeometry x="671" y="920" width="147" height="54" as="geometry"/>
                </mxCell>
                <mxCell id="vQexvPJKmokWHnE8e-SK-21" value="Category Create Form" style="whiteSpace=wrap;strokeWidth=2;" parent="1" vertex="1">
                    <mxGeometry x="868" y="920" width="219" height="54" as="geometry"/>
                </mxCell>
                <mxCell id="vQexvPJKmokWHnE8e-SK-22" value="Category Edit Form" style="whiteSpace=wrap;strokeWidth=2;" parent="1" vertex="1">
                    <mxGeometry x="1137" y="920" width="199" height="54" as="geometry"/>
                </mxCell>
                <mxCell id="vQexvPJKmokWHnE8e-SK-23" value="Category Delete" style="whiteSpace=wrap;strokeWidth=2;" parent="1" vertex="1">
                    <mxGeometry x="1386" y="920" width="176" height="54" as="geometry"/>
                </mxCell>
                <mxCell id="vQexvPJKmokWHnE8e-SK-24" value="Browse Books" style="curved=1;startArrow=none;endArrow=block;exitX=0;exitY=0.67;entryX=0.5;entryY=0;rounded=0;" parent="1" source="vQexvPJKmokWHnE8e-SK-5" target="vQexvPJKmokWHnE8e-SK-6" edge="1">
                    <mxGeometry relative="1" as="geometry">
                        <Array as="points">
                            <mxPoint x="408" y="135"/>
                        </Array>
                    </mxGeometry>
                </mxCell>
                <mxCell id="vQexvPJKmokWHnE8e-SK-25" value="View Book Details" style="curved=1;startArrow=none;endArrow=block;exitX=0.64;exitY=1;entryX=0.5;entryY=0;rounded=0;" parent="1" source="vQexvPJKmokWHnE8e-SK-6" target="vQexvPJKmokWHnE8e-SK-7" edge="1">
                    <mxGeometry relative="1" as="geometry">
                        <Array as="points">
                            <mxPoint x="456" y="260"/>
                        </Array>
                    </mxGeometry>
                </mxCell>
                <mxCell id="vQexvPJKmokWHnE8e-SK-26" value="Stats &amp; Recent Books" style="curved=1;startArrow=none;endArrow=block;exitX=0;exitY=0.68;entryX=0.5;entryY=0;rounded=0;" parent="1" source="vQexvPJKmokWHnE8e-SK-14" target="vQexvPJKmokWHnE8e-SK-15" edge="1">
                    <mxGeometry relative="1" as="geometry">
                        <Array as="points">
                            <mxPoint x="123" y="724"/>
                        </Array>
                    </mxGeometry>
                </mxCell>
                <mxCell id="vQexvPJKmokWHnE8e-SK-27" value="Manage Books" style="curved=1;startArrow=none;endArrow=block;exitX=0.41;exitY=1;entryX=0.5;entryY=0;rounded=0;" parent="1" source="vQexvPJKmokWHnE8e-SK-14" target="vQexvPJKmokWHnE8e-SK-16" edge="1">
                    <mxGeometry relative="1" as="geometry">
                        <Array as="points">
                            <mxPoint x="588" y="724"/>
                        </Array>
                    </mxGeometry>
                </mxCell>
                <mxCell id="vQexvPJKmokWHnE8e-SK-28" value="Manage Categories" style="curved=1;startArrow=none;endArrow=block;exitX=1;exitY=0.69;entryX=0.5;entryY=0;rounded=0;" parent="1" source="vQexvPJKmokWHnE8e-SK-14" target="vQexvPJKmokWHnE8e-SK-17" edge="1">
                    <mxGeometry relative="1" as="geometry">
                        <Array as="points">
                            <mxPoint x="1107" y="724"/>
                        </Array>
                    </mxGeometry>
                </mxCell>
                <mxCell id="vQexvPJKmokWHnE8e-SK-29" value="Add Book" style="curved=1;startArrow=none;endArrow=block;exitX=0;exitY=0.97;entryX=0.76;entryY=0;rounded=0;" parent="1" source="vQexvPJKmokWHnE8e-SK-16" target="vQexvPJKmokWHnE8e-SK-18" edge="1">
                    <mxGeometry relative="1" as="geometry">
                        <Array as="points">
                            <mxPoint x="341" y="885"/>
                        </Array>
                    </mxGeometry>
                </mxCell>
                <mxCell id="vQexvPJKmokWHnE8e-SK-30" value="Edit Book" style="curved=1;startArrow=none;endArrow=block;exitX=0.5;exitY=1;entryX=0.84;entryY=0;rounded=0;" parent="1" source="vQexvPJKmokWHnE8e-SK-16" target="vQexvPJKmokWHnE8e-SK-19" edge="1">
                    <mxGeometry relative="1" as="geometry">
                        <Array as="points">
                            <mxPoint x="588" y="885"/>
                        </Array>
                    </mxGeometry>
                </mxCell>
                <mxCell id="vQexvPJKmokWHnE8e-SK-31" value="Delete Book" style="curved=1;startArrow=none;endArrow=block;exitX=0.83;exitY=1;entryX=0.5;entryY=0;rounded=0;" parent="1" source="vQexvPJKmokWHnE8e-SK-16" target="vQexvPJKmokWHnE8e-SK-20" edge="1">
                    <mxGeometry relative="1" as="geometry">
                        <Array as="points">
                            <mxPoint x="744" y="885"/>
                        </Array>
                    </mxGeometry>
                </mxCell>
                <mxCell id="vQexvPJKmokWHnE8e-SK-32" value="Add Category" style="curved=1;startArrow=none;endArrow=block;exitX=0.26;exitY=1;entryX=0.5;entryY=0;rounded=0;" parent="1" source="vQexvPJKmokWHnE8e-SK-17" target="vQexvPJKmokWHnE8e-SK-21" edge="1">
                    <mxGeometry relative="1" as="geometry">
                        <Array as="points">
                            <mxPoint x="977" y="885"/>
                        </Array>
                    </mxGeometry>
                </mxCell>
                <mxCell id="vQexvPJKmokWHnE8e-SK-33" value="Edit Category" style="curved=1;startArrow=none;endArrow=block;exitX=0.74;exitY=1;entryX=0.5;entryY=0;rounded=0;" parent="1" source="vQexvPJKmokWHnE8e-SK-17" target="vQexvPJKmokWHnE8e-SK-22" edge="1">
                    <mxGeometry relative="1" as="geometry">
                        <Array as="points">
                            <mxPoint x="1236" y="885"/>
                        </Array>
                    </mxGeometry>
                </mxCell>
                <mxCell id="vQexvPJKmokWHnE8e-SK-34" value="Delete Category" style="curved=1;startArrow=none;endArrow=block;exitX=1;exitY=0.87;entryX=0.5;entryY=0;rounded=0;" parent="1" source="vQexvPJKmokWHnE8e-SK-17" target="vQexvPJKmokWHnE8e-SK-23" edge="1">
                    <mxGeometry relative="1" as="geometry">
                        <Array as="points">
                            <mxPoint x="1473" y="885"/>
                        </Array>
                    </mxGeometry>
                </mxCell>
                <mxCell id="vQexvPJKmokWHnE8e-SK-35" value="Login" style="curved=1;startArrow=none;endArrow=block;exitX=0.75;exitY=1;entryX=0;entryY=0.44;rounded=0;" parent="1" source="vQexvPJKmokWHnE8e-SK-5" target="vQexvPJKmokWHnE8e-SK-8" edge="1">
                    <mxGeometry relative="1" as="geometry">
                        <Array as="points">
                            <mxPoint x="1073" y="135"/>
                            <mxPoint x="1073" y="295"/>
                        </Array>
                    </mxGeometry>
                </mxCell>
                <mxCell id="vQexvPJKmokWHnE8e-SK-36" value="Register" style="curved=1;startArrow=none;endArrow=block;exitX=0.36;exitY=1;entryX=0;entryY=0.43;rounded=0;" parent="1" source="vQexvPJKmokWHnE8e-SK-5" target="vQexvPJKmokWHnE8e-SK-9" edge="1">
                    <mxGeometry relative="1" as="geometry">
                        <Array as="points">
                            <mxPoint x="921" y="135"/>
                            <mxPoint x="921" y="295"/>
                        </Array>
                    </mxGeometry>
                </mxCell>
                <mxCell id="vQexvPJKmokWHnE8e-SK-37" value="Success" style="curved=1;startArrow=none;endArrow=block;exitX=0.5;exitY=1;entryX=0.76;entryY=0;rounded=0;" parent="1" source="vQexvPJKmokWHnE8e-SK-8" target="vQexvPJKmokWHnE8e-SK-11" edge="1">
                    <mxGeometry relative="1" as="geometry">
                        <Array as="points">
                            <mxPoint x="1874" y="399"/>
                            <mxPoint x="1834" y="435"/>
                            <mxPoint x="1834" y="470"/>
                        </Array>
                    </mxGeometry>
                </mxCell>
                <mxCell id="vQexvPJKmokWHnE8e-SK-38" value="Success" style="curved=1;startArrow=none;endArrow=block;exitX=0.5;exitY=1;entryX=0.36;entryY=0;rounded=0;" parent="1" source="vQexvPJKmokWHnE8e-SK-9" target="vQexvPJKmokWHnE8e-SK-11" edge="1">
                    <mxGeometry relative="1" as="geometry">
                        <Array as="points">
                            <mxPoint x="1715" y="399"/>
                            <mxPoint x="1698" y="435"/>
                            <mxPoint x="1698" y="470"/>
                        </Array>
                    </mxGeometry>
                </mxCell>
                <mxCell id="vQexvPJKmokWHnE8e-SK-39" value="Login Required" style="curved=1;startArrow=none;endArrow=block;exitX=1;exitY=0.65;entryX=0;entryY=0.45;rounded=0;" parent="1" source="vQexvPJKmokWHnE8e-SK-6" target="vQexvPJKmokWHnE8e-SK-8" edge="1">
                    <mxGeometry relative="1" as="geometry">
                        <Array as="points">
                            <mxPoint x="997" y="260"/>
                            <mxPoint x="997" y="295"/>
                        </Array>
                    </mxGeometry>
                </mxCell>
                <mxCell id="vQexvPJKmokWHnE8e-SK-40" value="Download Book" style="curved=1;startArrow=none;endArrow=block;exitX=1;exitY=0.64;entryX=0.5;entryY=0;rounded=0;" parent="1" source="vQexvPJKmokWHnE8e-SK-7" target="vQexvPJKmokWHnE8e-SK-12" edge="1">
                    <mxGeometry relative="1" as="geometry">
                        <Array as="points">
                            <mxPoint x="937" y="399"/>
                            <mxPoint x="1992" y="435"/>
                        </Array>
                    </mxGeometry>
                </mxCell>
                <mxCell id="vQexvPJKmokWHnE8e-SK-41" value="" style="curved=1;startArrow=none;endArrow=block;exitX=0.84;exitY=1;entryX=0.5;entryY=0;rounded=0;" parent="1" source="vQexvPJKmokWHnE8e-SK-11" target="vQexvPJKmokWHnE8e-SK-13" edge="1">
                    <mxGeometry relative="1" as="geometry">
                        <Array as="points">
                            <mxPoint x="1882" y="585"/>
                        </Array>
                    </mxGeometry>
                </mxCell>
                <mxCell id="vQexvPJKmokWHnE8e-SK-42" value="For Admin Users" style="curved=1;startArrow=none;endArrow=block;exitX=0.44;exitY=1;entryX=1;entryY=0.42;rounded=0;" parent="1" source="vQexvPJKmokWHnE8e-SK-11" target="vQexvPJKmokWHnE8e-SK-14" edge="1">
                    <mxGeometry relative="1" as="geometry">
                        <Array as="points">
                            <mxPoint x="1719" y="585"/>
                            <mxPoint x="1719" y="620"/>
                        </Array>
                    </mxGeometry>
                </mxCell>
                <mxCell id="vQexvPJKmokWHnE8e-SK-43" value="For Admin Users" style="curved=1;startArrow=none;endArrow=block;exitX=0.29;exitY=1;entryX=0.35;entryY=0;rounded=0;" parent="1" source="vQexvPJKmokWHnE8e-SK-7" target="vQexvPJKmokWHnE8e-SK-19" edge="1">
                    <mxGeometry relative="1" as="geometry">
                        <Array as="points">
                            <mxPoint x="398" y="399"/>
                            <mxPoint x="398" y="885"/>
                        </Array>
                    </mxGeometry>
                </mxCell>
                <mxCell id="vQexvPJKmokWHnE8e-SK-44" value="For Admin Users" style="curved=1;startArrow=none;endArrow=block;exitX=0;exitY=0.97;entryX=0.5;entryY=0;rounded=0;" parent="1" source="vQexvPJKmokWHnE8e-SK-6" target="vQexvPJKmokWHnE8e-SK-18" edge="1">
                    <mxGeometry relative="1" as="geometry">
                        <Array as="points">
                            <mxPoint x="225" y="260"/>
                        </Array>
                    </mxGeometry>
                </mxCell>
            </root>
        </mxGraphModel>
    </diagram>
</mxfile>